<svg width="589" height="213" viewBox="0 0 589 213" fill="none" xmlns="http://www.w3.org/2000/svg">
<path d="M326.752 111.666C327.465 108.754 330.076 106.706 333.073 106.706H580.532C584.753 106.706 587.857 110.662 586.853 114.761L565.054 203.778C564.341 206.69 561.731 208.738 558.733 208.738H311.274C307.053 208.738 303.949 204.782 304.953 200.682L326.752 111.666Z" fill="#0BC9F2"/>
<path d="M24.3598 86C23.6481 86 23.0011 85.7412 22.4188 85.2236C21.8365 84.6413 21.5453 83.9619 21.5453 83.1855V78.0418C21.5453 77.2654 21.2542 76.6184 20.6719 76.1008C20.1543 75.5185 19.5073 75.2273 18.7309 75.2273H13.5871C12.8107 75.2273 12.1314 74.9685 11.5491 74.4509C11.0315 73.8686 10.7727 73.1893 10.7727 72.4129V34.8541C10.7727 34.1424 11.0315 33.4954 11.5491 32.9131C12.1314 32.3308 12.8107 32.0396 13.5871 32.0396H18.7309C19.5073 32.0396 20.1543 31.7808 20.6719 31.2632C21.2542 30.6809 21.5453 30.0339 21.5453 29.3222V24.0814C21.5453 23.3697 21.8365 22.7227 22.4188 22.1404C23.0011 21.5581 23.6481 21.267 24.3598 21.267H61.9186C62.6303 21.267 63.2773 21.5581 63.8596 22.1404C64.4419 22.7227 64.733 23.3697 64.733 24.0814V40.0949C64.733 40.8066 64.4419 41.4536 63.8596 42.0359C63.2773 42.6182 62.6303 42.9093 61.9186 42.9093H56.6778C55.9661 42.9093 55.3191 42.6182 54.7368 42.0359C54.2192 41.4536 53.9604 40.8066 53.9604 40.0949V34.8541C53.9604 34.1424 53.6692 33.4954 53.0869 32.9131C52.5046 32.3308 51.8576 32.0396 51.1459 32.0396H35.1325C34.4208 32.0396 33.7738 32.3308 33.1915 32.9131C32.6092 33.4954 32.318 34.1424 32.318 34.8541V72.4129C32.318 73.1893 32.6092 73.8686 33.1915 74.4509C33.7738 74.9685 34.4208 75.2273 35.1325 75.2273H51.1459C51.8576 75.2273 52.5046 74.9685 53.0869 74.4509C53.6692 73.8686 53.9604 73.1893 53.9604 72.4129V67.2691C53.9604 66.4927 54.2192 65.8457 54.7368 65.3281C55.3191 64.7458 55.9661 64.4547 56.6778 64.4547H61.9186C62.6303 64.4547 63.2773 64.7458 63.8596 65.3281C64.4419 65.8457 64.733 66.4927 64.733 67.2691V72.4129C64.733 73.1893 64.4419 73.8686 63.8596 74.4509C63.2773 74.9685 62.6303 75.2273 61.9186 75.2273H56.6778C55.9661 75.2273 55.3191 75.5185 54.7368 76.1008C54.2192 76.6184 53.9604 77.2654 53.9604 78.0418V83.1855C53.9604 83.9619 53.6692 84.6413 53.0869 85.2236C52.5046 85.7412 51.8576 86 51.1459 86H24.3598ZM85.2419 86C84.4655 86 83.7861 85.7412 83.2038 85.2236C82.6862 84.6413 82.4274 83.9619 82.4274 83.1855V24.0814C82.4274 23.3697 82.6862 22.7227 83.2038 22.1404C83.7861 21.5581 84.4655 21.267 85.2419 21.267H122.801C123.512 21.267 124.159 21.5581 124.742 22.1404C125.324 22.7227 125.615 23.3697 125.615 24.0814V29.3222C125.615 30.0339 125.874 30.6809 126.392 31.2632C126.974 31.7808 127.621 32.0396 128.333 32.0396H133.573C134.285 32.0396 134.932 32.3308 135.514 32.9131C136.097 33.4954 136.388 34.1424 136.388 34.8541V50.8675C136.388 51.5792 136.097 52.2262 135.514 52.8085C134.932 53.3908 134.285 53.682 133.573 53.682H128.333C127.621 53.682 126.974 53.9732 126.392 54.5555C125.874 55.0731 125.615 55.7201 125.615 56.4965V61.6402C125.615 62.3519 125.874 62.9989 126.392 63.5812C126.974 64.1635 127.621 64.4547 128.333 64.4547H133.573C134.285 64.4547 134.932 64.7458 135.514 65.3281C136.097 65.8457 136.388 66.4927 136.388 67.2691V83.1855C136.388 83.9619 136.097 84.6413 135.514 85.2236C134.932 85.7412 134.285 86 133.573 86H117.56C116.848 86 116.201 85.7412 115.619 85.2236C115.037 84.6413 114.745 83.9619 114.745 83.1855V67.2691C114.745 66.4927 114.454 65.8457 113.872 65.3281C113.354 64.7458 112.74 64.4547 112.028 64.4547H106.787C106.076 64.4547 105.429 64.7458 104.846 65.3281C104.264 65.8457 103.973 66.4927 103.973 67.2691V83.1855C103.973 83.9619 103.682 84.6413 103.099 85.2236C102.582 85.7412 101.935 86 101.158 86H85.2419ZM112.028 53.682C112.74 53.682 113.354 53.3908 113.872 52.8085C114.454 52.2262 114.745 51.5792 114.745 50.8675V34.8541C114.745 34.1424 114.454 33.4954 113.872 32.9131C113.354 32.3308 112.74 32.0396 112.028 32.0396H106.787C106.076 32.0396 105.429 32.3308 104.846 32.9131C104.264 33.4954 103.973 34.1424 103.973 34.8541V50.8675C103.973 51.5792 104.264 52.2262 104.846 52.8085C105.429 53.3908 106.076 53.682 106.787 53.682H112.028ZM167.669 86C166.958 86 166.311 85.7412 165.728 85.2236C165.146 84.6413 164.855 83.9619 164.855 83.1855V56.4965C164.855 55.7201 164.564 55.0731 163.981 54.5555C163.464 53.9732 162.817 53.682 162.04 53.682H156.897C156.12 53.682 155.441 53.3908 154.859 52.8085C154.341 52.2262 154.082 51.5792 154.082 50.8675V45.6268C154.082 44.9151 153.791 44.3004 153.209 43.7828C152.691 43.2005 152.044 42.9093 151.268 42.9093H146.124C145.348 42.9093 144.668 42.6182 144.086 42.0359C143.568 41.4536 143.31 40.8066 143.31 40.0949V24.0814C143.31 23.3697 143.568 22.7227 144.086 22.1404C144.668 21.5581 145.348 21.267 146.124 21.267H172.813C173.589 21.267 174.236 21.5581 174.754 22.1404C175.336 22.7227 175.628 23.3697 175.628 24.0814V50.8675C175.628 51.5792 175.919 52.2262 176.501 52.8085C177.083 53.3908 177.73 53.682 178.442 53.682H183.683C184.394 53.682 185.009 53.3908 185.527 52.8085C186.109 52.2262 186.4 51.5792 186.4 50.8675V24.0814C186.4 23.3697 186.691 22.7227 187.274 22.1404C187.856 21.5581 188.503 21.267 189.215 21.267H205.228C205.94 21.267 206.587 21.5581 207.169 22.1404C207.751 22.7227 208.043 23.3697 208.043 24.0814V40.0949C208.043 40.8066 207.751 41.4536 207.169 42.0359C206.587 42.6182 205.94 42.9093 205.228 42.9093H199.987C199.276 42.9093 198.629 43.2005 198.046 43.7828C197.529 44.3004 197.27 44.9151 197.27 45.6268V50.8675C197.27 51.5792 196.979 52.2262 196.396 52.8085C195.814 53.3908 195.167 53.682 194.455 53.682H189.215C188.503 53.682 187.856 53.9732 187.274 54.5555C186.691 55.0731 186.4 55.7201 186.4 56.4965V83.1855C186.4 83.9619 186.109 84.6413 185.527 85.2236C185.009 85.7412 184.394 86 183.683 86H167.669ZM217.747 86C216.97 86 216.291 85.7412 215.709 85.2236C215.191 84.6413 214.932 83.9619 214.932 83.1855V24.0814C214.932 23.3697 215.191 22.7227 215.709 22.1404C216.291 21.5581 216.97 21.267 217.747 21.267H255.306C256.017 21.267 256.664 21.5581 257.247 22.1404C257.829 22.7227 258.12 23.3697 258.12 24.0814V29.3222C258.12 30.0339 258.379 30.6809 258.897 31.2632C259.479 31.7808 260.126 32.0396 260.838 32.0396H266.078C266.79 32.0396 267.437 32.3308 268.019 32.9131C268.602 33.4954 268.893 34.1424 268.893 34.8541V50.8675C268.893 51.5792 268.602 52.2262 268.019 52.8085C267.437 53.3908 266.79 53.682 266.078 53.682H260.838C260.126 53.682 259.479 53.9732 258.897 54.5555C258.379 55.0731 258.12 55.7201 258.12 56.4965V61.6402C258.12 62.3519 257.829 62.9989 257.247 63.5812C256.664 64.1635 256.017 64.4547 255.306 64.4547H239.292C238.581 64.4547 237.934 64.7458 237.351 65.3281C236.769 65.8457 236.478 66.4927 236.478 67.2691V83.1855C236.478 83.9619 236.187 84.6413 235.604 85.2236C235.087 85.7412 234.44 86 233.663 86H217.747ZM244.533 53.682C245.245 53.682 245.859 53.3908 246.377 52.8085C246.959 52.2262 247.25 51.5792 247.25 50.8675V34.8541C247.25 34.1424 246.959 33.4954 246.377 32.9131C245.859 32.3308 245.245 32.0396 244.533 32.0396H239.292C238.581 32.0396 237.934 32.3308 237.351 32.9131C236.769 33.4954 236.478 34.1424 236.478 34.8541V50.8675C236.478 51.5792 236.769 52.2262 237.351 52.8085C237.934 53.3908 238.581 53.682 239.292 53.682H244.533ZM300.174 86C299.463 86 298.816 85.7412 298.233 85.2236C297.651 84.6413 297.36 83.9619 297.36 83.1855V34.8541C297.36 34.1424 297.069 33.4954 296.486 32.9131C295.969 32.3308 295.322 32.0396 294.545 32.0396H278.629C277.853 32.0396 277.173 31.7808 276.591 31.2632C276.073 30.6809 275.815 30.0339 275.815 29.3222V24.0814C275.815 23.3697 276.073 22.7227 276.591 22.1404C277.173 21.5581 277.853 21.267 278.629 21.267H337.733C338.445 21.267 339.092 21.5581 339.674 22.1404C340.256 22.7227 340.548 23.3697 340.548 24.0814V29.3222C340.548 30.0339 340.256 30.6809 339.674 31.2632C339.092 31.7808 338.445 32.0396 337.733 32.0396H321.72C321.008 32.0396 320.361 32.3308 319.779 32.9131C319.196 33.4954 318.905 34.1424 318.905 34.8541V83.1855C318.905 83.9619 318.614 84.6413 318.032 85.2236C317.514 85.7412 316.899 86 316.188 86H300.174ZM361.025 86C360.313 86 359.666 85.7412 359.084 85.2236C358.501 84.6413 358.21 83.9619 358.21 83.1855V78.0418C358.21 77.2654 357.919 76.6184 357.337 76.1008C356.819 75.5185 356.172 75.2273 355.396 75.2273H350.252C349.476 75.2273 348.796 74.9685 348.214 74.4509C347.696 73.8686 347.437 73.1893 347.437 72.4129V34.8541C347.437 34.1424 347.696 33.4954 348.214 32.9131C348.796 32.3308 349.476 32.0396 350.252 32.0396H355.396C356.172 32.0396 356.819 31.7808 357.337 31.2632C357.919 30.6809 358.21 30.0339 358.21 29.3222V24.0814C358.21 23.3697 358.501 22.7227 359.084 22.1404C359.666 21.5581 360.313 21.267 361.025 21.267H387.811C388.522 21.267 389.169 21.5581 389.752 22.1404C390.334 22.7227 390.625 23.3697 390.625 24.0814V29.3222C390.625 30.0339 390.884 30.6809 391.402 31.2632C391.984 31.7808 392.631 32.0396 393.343 32.0396H398.583C399.295 32.0396 399.942 32.3308 400.524 32.9131C401.107 33.4954 401.398 34.1424 401.398 34.8541V72.4129C401.398 73.1893 401.107 73.8686 400.524 74.4509C399.942 74.9685 399.295 75.2273 398.583 75.2273H393.343C392.631 75.2273 391.984 75.5185 391.402 76.1008C390.884 76.6184 390.625 77.2654 390.625 78.0418V83.1855C390.625 83.9619 390.334 84.6413 389.752 85.2236C389.169 85.7412 388.522 86 387.811 86H361.025ZM377.038 75.2273C377.75 75.2273 378.364 74.9685 378.882 74.4509C379.464 73.8686 379.755 73.1893 379.755 72.4129V34.8541C379.755 34.1424 379.464 33.4954 378.882 32.9131C378.364 32.3308 377.75 32.0396 377.038 32.0396H371.797C371.086 32.0396 370.439 32.3308 369.856 32.9131C369.274 33.4954 368.983 34.1424 368.983 34.8541V72.4129C368.983 73.1893 369.274 73.8686 369.856 74.4509C370.439 74.9685 371.086 75.2273 371.797 75.2273H377.038ZM13.5871 192C12.8107 192 12.1314 191.741 11.5491 191.224C11.0315 190.641 10.7727 189.962 10.7727 189.186V130.081C10.7727 129.37 11.0315 128.723 11.5491 128.14C12.1314 127.558 12.8107 127.267 13.5871 127.267H29.5035C30.2799 127.267 30.9269 127.558 31.4445 128.14C32.0268 128.723 32.318 129.37 32.318 130.081V135.322C32.318 136.034 32.6092 136.681 33.1915 137.263C33.7738 137.781 34.4208 138.04 35.1325 138.04H40.3732C41.0849 138.04 41.6996 138.331 42.2172 138.913C42.7995 139.495 43.0907 140.142 43.0907 140.854V146.095C43.0907 146.807 43.3818 147.454 43.9641 148.036C44.5464 148.618 45.1934 148.909 45.9051 148.909H51.1459C51.8576 148.909 52.5046 148.618 53.0869 148.036C53.6692 147.454 53.9604 146.807 53.9604 146.095V130.081C53.9604 129.37 54.2192 128.723 54.7368 128.14C55.3191 127.558 55.9661 127.267 56.6778 127.267H61.9186C62.6303 127.267 63.2773 127.558 63.8596 128.14C64.4419 128.723 64.733 129.37 64.733 130.081V189.186C64.733 189.962 64.4419 190.641 63.8596 191.224C63.2773 191.741 62.6303 192 61.9186 192H45.9051C45.1934 192 44.5464 191.741 43.9641 191.224C43.3818 190.641 43.0907 189.962 43.0907 189.186V173.269C43.0907 172.493 42.7995 171.846 42.2172 171.328C41.6996 170.746 41.0849 170.455 40.3732 170.455H35.1325C34.4208 170.455 33.7738 170.164 33.1915 169.581C32.6092 168.999 32.318 168.352 32.318 167.64V162.496C32.318 161.72 32.0268 161.073 31.4445 160.555C30.9269 159.973 30.2799 159.682 29.5035 159.682H24.3598C23.6481 159.682 23.0011 159.973 22.4188 160.555C21.8365 161.073 21.5453 161.72 21.5453 162.496V189.186C21.5453 189.962 21.2542 190.641 20.6719 191.224C20.1543 191.741 19.5073 192 18.7309 192H13.5871ZM85.2419 192C84.4655 192 83.7861 191.741 83.2038 191.224C82.6862 190.641 82.4274 189.962 82.4274 189.186V130.081C82.4274 129.37 82.6862 128.723 83.2038 128.14C83.7861 127.558 84.4655 127.267 85.2419 127.267H122.801C123.512 127.267 124.159 127.558 124.742 128.14C125.324 128.723 125.615 129.37 125.615 130.081V135.322C125.615 136.034 125.324 136.681 124.742 137.263C124.159 137.781 123.512 138.04 122.801 138.04H106.787C106.076 138.04 105.429 138.331 104.846 138.913C104.264 139.495 103.973 140.142 103.973 140.854V146.095C103.973 146.807 104.264 147.454 104.846 148.036C105.429 148.618 106.076 148.909 106.787 148.909H122.801C123.512 148.909 124.159 149.2 124.742 149.783C125.324 150.3 125.615 150.915 125.615 151.627V156.868C125.615 157.579 125.324 158.226 124.742 158.809C124.159 159.391 123.512 159.682 122.801 159.682H106.787C106.076 159.682 105.429 159.973 104.846 160.555C104.264 161.073 103.973 161.72 103.973 162.496V178.413C103.973 179.189 104.264 179.869 104.846 180.451C105.429 180.969 106.076 181.227 106.787 181.227H122.801C123.512 181.227 124.159 181.518 124.742 182.101C125.324 182.618 125.615 183.265 125.615 184.042V189.186C125.615 189.962 125.324 190.641 124.742 191.224C124.159 191.741 123.512 192 122.801 192H85.2419ZM156.865 192C156.153 192 155.506 191.741 154.924 191.224C154.341 190.641 154.05 189.962 154.05 189.186V173.269C154.05 172.493 153.759 171.846 153.177 171.328C152.659 170.746 152.012 170.455 151.236 170.455H146.092C145.316 170.455 144.636 170.164 144.054 169.581C143.536 168.999 143.278 168.352 143.278 167.64V151.627C143.278 150.915 142.987 150.3 142.404 149.783C141.887 149.2 141.24 148.909 140.463 148.909H135.319C134.543 148.909 133.864 148.618 133.281 148.036C132.764 147.454 132.505 146.807 132.505 146.095V130.081C132.505 129.37 132.764 128.723 133.281 128.14C133.864 127.558 134.543 127.267 135.319 127.267H162.009C162.785 127.267 163.432 127.558 163.95 128.14C164.532 128.723 164.823 129.37 164.823 130.081V167.64C164.823 168.352 165.114 168.999 165.696 169.581C166.279 170.164 166.926 170.455 167.637 170.455H172.878C173.59 170.455 174.205 170.164 174.722 169.581C175.305 168.999 175.596 168.352 175.596 167.64V130.081C175.596 129.37 175.887 128.723 176.469 128.14C177.051 127.558 177.698 127.267 178.41 127.267H194.424C195.135 127.267 195.782 127.558 196.365 128.14C196.947 128.723 197.238 129.37 197.238 130.081V167.64C197.238 168.352 197.497 168.999 198.014 169.581C198.597 170.164 199.276 170.455 200.053 170.455H205.196C205.908 170.455 206.555 170.164 207.137 169.581C207.72 168.999 208.011 168.352 208.011 167.64V130.081C208.011 129.37 208.27 128.723 208.787 128.14C209.369 127.558 210.049 127.267 210.825 127.267H226.742C227.518 127.267 228.165 127.558 228.683 128.14C229.265 128.723 229.556 129.37 229.556 130.081V146.095C229.556 146.807 229.265 147.454 228.683 148.036C228.165 148.618 227.518 148.909 226.742 148.909H221.598C220.821 148.909 220.142 149.2 219.56 149.783C219.042 150.3 218.783 150.915 218.783 151.627V167.64C218.783 168.352 218.492 168.999 217.91 169.581C217.392 170.164 216.745 170.455 215.969 170.455H210.825C210.049 170.455 209.369 170.746 208.787 171.328C208.27 171.846 208.011 172.493 208.011 173.269V189.186C208.011 189.962 207.72 190.641 207.137 191.224C206.555 191.741 205.908 192 205.196 192H189.183C188.471 192 187.824 191.741 187.242 191.224C186.724 190.641 186.465 189.962 186.465 189.186V173.269C186.465 172.493 186.174 171.846 185.592 171.328C185.01 170.746 184.363 170.455 183.651 170.455H178.41C177.698 170.455 177.051 170.746 176.469 171.328C175.887 171.846 175.596 172.493 175.596 173.269V189.186C175.596 189.962 175.305 190.641 174.722 191.224C174.205 191.741 173.59 192 172.878 192H156.865ZM239.261 192C238.485 192 237.805 191.741 237.223 191.224C236.705 190.641 236.447 189.962 236.447 189.186V184.042C236.447 183.265 236.705 182.618 237.223 182.101C237.805 181.518 238.485 181.227 239.261 181.227H255.178C255.954 181.227 256.601 180.969 257.119 180.451C257.701 179.869 257.992 179.189 257.992 178.413V173.269C257.992 172.493 257.701 171.846 257.119 171.328C256.601 170.746 255.954 170.455 255.178 170.455H250.034C249.322 170.455 248.675 170.164 248.093 169.581C247.51 168.999 247.219 168.352 247.219 167.64V162.496C247.219 161.72 246.928 161.073 246.346 160.555C245.828 159.973 245.181 159.682 244.405 159.682H239.261C238.485 159.682 237.805 159.391 237.223 158.809C236.705 158.226 236.447 157.579 236.447 156.868V140.854C236.447 140.142 236.705 139.495 237.223 138.913C237.805 138.331 238.485 138.04 239.261 138.04H244.405C245.181 138.04 245.828 137.781 246.346 137.263C246.928 136.681 247.219 136.034 247.219 135.322V130.081C247.219 129.37 247.51 128.723 248.093 128.14C248.675 127.558 249.322 127.267 250.034 127.267H276.82C277.532 127.267 278.179 127.558 278.761 128.14C279.343 128.723 279.634 129.37 279.634 130.081V135.322C279.634 136.034 279.343 136.681 278.761 137.263C278.179 137.781 277.532 138.04 276.82 138.04H260.806C260.095 138.04 259.448 138.331 258.865 138.913C258.283 139.495 257.992 140.142 257.992 140.854V146.095C257.992 146.807 258.283 147.454 258.865 148.036C259.448 148.618 260.095 148.909 260.806 148.909H266.047C266.759 148.909 267.374 149.2 267.891 149.783C268.474 150.3 268.765 150.915 268.765 151.627V156.868C268.765 157.579 269.056 158.226 269.638 158.809C270.22 159.391 270.867 159.682 271.579 159.682H276.82C277.532 159.682 278.179 159.973 278.761 160.555C279.343 161.073 279.634 161.72 279.634 162.496V178.413C279.634 179.189 279.343 179.869 278.761 180.451C278.179 180.969 277.532 181.227 276.82 181.227H271.579C270.867 181.227 270.22 181.518 269.638 182.101C269.056 182.618 268.765 183.265 268.765 184.042V189.186C268.765 189.962 268.474 190.641 267.891 191.224C267.374 191.741 266.759 192 266.047 192H239.261Z" fill="#98F040"/>
<path d="M328.548 192C327.772 192 327.092 191.741 326.51 191.224C325.992 190.641 325.734 189.962 325.734 189.186V173.269C325.734 172.493 325.992 171.846 326.51 171.328C327.092 170.746 327.772 170.455 328.548 170.455H344.464C345.241 170.455 345.888 170.746 346.406 171.328C346.988 171.846 347.279 172.493 347.279 173.269V189.186C347.279 189.962 346.988 190.641 346.406 191.224C345.888 191.741 345.241 192 344.464 192H328.548ZM378.562 192C377.85 192 377.203 191.741 376.621 191.224C376.039 190.641 375.748 189.962 375.748 189.186V184.042C375.748 183.265 375.456 182.618 374.874 182.101C374.356 181.518 373.709 181.227 372.933 181.227H367.789C367.013 181.227 366.334 180.969 365.751 180.451C365.234 179.869 364.975 179.189 364.975 178.413V140.854C364.975 140.142 365.234 139.495 365.751 138.913C366.334 138.331 367.013 138.04 367.789 138.04H372.933C373.709 138.04 374.356 137.781 374.874 137.263C375.456 136.681 375.748 136.034 375.748 135.322V130.081C375.748 129.37 376.039 128.723 376.621 128.14C377.203 127.558 377.85 127.267 378.562 127.267H405.348C406.06 127.267 406.707 127.558 407.289 128.14C407.871 128.723 408.163 129.37 408.163 130.081V135.322C408.163 136.034 408.421 136.681 408.939 137.263C409.521 137.781 410.168 138.04 410.88 138.04H416.121C416.832 138.04 417.479 138.331 418.062 138.913C418.644 139.495 418.935 140.142 418.935 140.854V178.413C418.935 179.189 418.644 179.869 418.062 180.451C417.479 180.969 416.832 181.227 416.121 181.227H410.88C410.168 181.227 409.521 181.518 408.939 182.101C408.421 182.618 408.163 183.265 408.163 184.042V189.186C408.163 189.962 407.871 190.641 407.289 191.224C406.707 191.741 406.06 192 405.348 192H378.562ZM394.575 181.227C395.287 181.227 395.902 180.969 396.419 180.451C397.002 179.869 397.293 179.189 397.293 178.413V140.854C397.293 140.142 397.002 139.495 396.419 138.913C395.902 138.331 395.287 138.04 394.575 138.04H389.335C388.623 138.04 387.976 138.331 387.394 138.913C386.811 139.495 386.52 140.142 386.52 140.854V178.413C386.52 179.189 386.811 179.869 387.394 180.451C387.976 180.969 388.623 181.227 389.335 181.227H394.575ZM439.444 192C438.668 192 437.988 191.741 437.406 191.224C436.888 190.641 436.63 189.962 436.63 189.186V130.081C436.63 129.37 436.888 128.723 437.406 128.14C437.988 127.558 438.668 127.267 439.444 127.267H455.36C456.137 127.267 456.784 127.558 457.301 128.14C457.884 128.723 458.175 129.37 458.175 130.081V135.322C458.175 136.034 458.466 136.681 459.048 137.263C459.631 137.781 460.278 138.04 460.989 138.04H466.23C466.942 138.04 467.557 138.331 468.074 138.913C468.656 139.495 468.948 140.142 468.948 140.854V146.095C468.948 146.807 469.239 147.454 469.821 148.036C470.403 148.618 471.05 148.909 471.762 148.909H477.003C477.715 148.909 478.362 148.618 478.944 148.036C479.526 147.454 479.817 146.807 479.817 146.095V130.081C479.817 129.37 480.076 128.723 480.594 128.14C481.176 127.558 481.823 127.267 482.535 127.267H487.775C488.487 127.267 489.134 127.558 489.717 128.14C490.299 128.723 490.59 129.37 490.59 130.081V189.186C490.59 189.962 490.299 190.641 489.717 191.224C489.134 191.741 488.487 192 487.775 192H471.762C471.05 192 470.403 191.741 469.821 191.224C469.239 190.641 468.948 189.962 468.948 189.186V173.269C468.948 172.493 468.656 171.846 468.074 171.328C467.557 170.746 466.942 170.455 466.23 170.455H460.989C460.278 170.455 459.631 170.164 459.048 169.581C458.466 168.999 458.175 168.352 458.175 167.64V162.496C458.175 161.72 457.884 161.073 457.301 160.555C456.784 159.973 456.137 159.682 455.36 159.682H450.217C449.505 159.682 448.858 159.973 448.276 160.555C447.693 161.073 447.402 161.72 447.402 162.496V189.186C447.402 189.962 447.111 190.641 446.529 191.224C446.011 191.741 445.364 192 444.588 192H439.444ZM511.099 192C510.322 192 509.643 191.741 509.061 191.224C508.543 190.641 508.284 189.962 508.284 189.186V130.081C508.284 129.37 508.543 128.723 509.061 128.14C509.643 127.558 510.322 127.267 511.099 127.267H548.658C549.369 127.267 550.016 127.558 550.599 128.14C551.181 128.723 551.472 129.37 551.472 130.081V135.322C551.472 136.034 551.181 136.681 550.599 137.263C550.016 137.781 549.369 138.04 548.658 138.04H532.644C531.932 138.04 531.285 138.331 530.703 138.913C530.121 139.495 529.83 140.142 529.83 140.854V146.095C529.83 146.807 530.121 147.454 530.703 148.036C531.285 148.618 531.932 148.909 532.644 148.909H548.658C549.369 148.909 550.016 149.2 550.599 149.783C551.181 150.3 551.472 150.915 551.472 151.627V156.868C551.472 157.579 551.181 158.226 550.599 158.809C550.016 159.391 549.369 159.682 548.658 159.682H532.644C531.932 159.682 531.285 159.973 530.703 160.555C530.121 161.073 529.83 161.72 529.83 162.496V178.413C529.83 179.189 530.121 179.869 530.703 180.451C531.285 180.969 531.932 181.227 532.644 181.227H548.658C549.369 181.227 550.016 181.518 550.599 182.101C551.181 182.618 551.472 183.265 551.472 184.042V189.186C551.472 189.962 551.181 190.641 550.599 191.224C550.016 191.741 549.369 192 548.658 192H511.099Z" fill="#171225"/>
</svg>
