<svg width="567" height="190" viewBox="0 0 567 190" fill="none" xmlns="http://www.w3.org/2000/svg">
<path fill-rule="evenodd" clip-rule="evenodd" d="M325.112 75.6671C325.795 76.274 326.591 76.5774 327.501 76.5774H333.532C334.443 76.5774 335.201 76.274 335.808 75.6671C336.491 74.9844 336.832 74.1879 336.832 73.2775V41.9853C336.832 41.0749 337.174 40.3163 337.856 39.7095C338.539 39.0267 339.298 38.6853 340.132 38.6853H346.163C347.073 38.6853 347.832 39.0267 348.439 39.7095C349.122 40.3163 349.463 41.0749 349.463 41.9853V48.0161C349.463 48.8506 349.804 49.6092 350.487 50.2919C351.17 50.9747 351.928 51.316 352.763 51.316H358.908C359.742 51.316 360.463 51.6574 361.07 52.3401C361.752 52.947 362.094 53.7056 362.094 54.6159V73.2775C362.094 74.1879 362.435 74.9844 363.118 75.6671C363.801 76.274 364.559 76.5774 365.394 76.5774H384.169C385.003 76.5774 385.762 76.274 386.445 75.6671C387.128 74.9844 387.469 74.1879 387.469 73.2775V3.97936C387.469 3.1449 387.128 2.3863 386.445 1.70356C385.762 1.02081 385.003 0.679443 384.169 0.679443H378.024C377.19 0.679443 376.431 1.02081 375.748 1.70356C375.142 2.3863 374.838 3.1449 374.838 3.97936V22.7547C374.838 23.5892 374.497 24.3478 373.814 25.0305C373.131 25.7133 372.373 26.0546 371.538 26.0546H365.394C364.559 26.0546 363.801 25.7133 363.118 25.0305C362.435 24.3478 362.094 23.5892 362.094 22.7547V16.6101C362.094 15.7756 361.752 15.017 361.07 14.3343C360.463 13.6515 359.742 13.3101 358.908 13.3101H352.763C351.928 13.3101 351.17 13.0067 350.487 12.3998C349.804 11.7171 349.463 10.9585 349.463 10.124V3.97936C349.463 3.1449 349.122 2.3863 348.439 1.70356C347.832 1.02081 347.073 0.679443 346.163 0.679443H327.501C326.591 0.679443 325.795 1.02081 325.112 1.70356C324.505 2.3863 324.202 3.1449 324.202 3.97936V73.2775C324.202 74.1879 324.505 74.9844 325.112 75.6671ZM4.11467 189.516C3.20435 189.516 2.40782 189.213 1.72508 188.606C1.1182 187.923 0.814758 187.127 0.814758 186.216V116.918C0.814758 116.084 1.1182 115.325 1.72508 114.642C2.40782 113.96 3.20435 113.618 4.11467 113.618H22.7762C23.6866 113.618 24.4452 113.96 25.052 114.642C25.7348 115.325 26.0762 116.084 26.0762 116.918V123.063C26.0762 123.897 26.4175 124.656 27.1003 125.339C27.783 125.946 28.5416 126.249 29.3761 126.249H35.5207C36.3552 126.249 37.0759 126.59 37.6828 127.273C38.3655 127.956 38.7069 128.714 38.7069 129.549V135.694C38.7069 136.528 39.0482 137.287 39.731 137.969C40.4137 138.652 41.1723 138.993 42.0068 138.993H48.1514C48.9859 138.993 49.7445 138.652 50.4272 137.969C51.11 137.287 51.4514 136.528 51.4514 135.694V116.918C51.4514 116.084 51.7548 115.325 52.3617 114.642C53.0444 113.96 53.803 113.618 54.6375 113.618H60.7821C61.6166 113.618 62.3752 113.96 63.0579 114.642C63.7407 115.325 64.0821 116.084 64.0821 116.918V186.216C64.0821 187.127 63.7407 187.923 63.0579 188.606C62.3752 189.213 61.6166 189.516 60.7821 189.516H42.0068C41.1723 189.516 40.4137 189.213 39.731 188.606C39.0482 187.923 38.7069 187.127 38.7069 186.216V167.555C38.7069 166.644 38.3655 165.886 37.6828 165.279C37.0759 164.596 36.3552 164.255 35.5207 164.255H29.3761C28.5416 164.255 27.783 163.913 27.1003 163.231C26.4175 162.548 26.0762 161.789 26.0762 160.955V154.924C26.0762 154.014 25.7348 153.255 25.052 152.648C24.4452 151.966 23.6866 151.624 22.7762 151.624H16.7454C15.9109 151.624 15.1523 151.966 14.4696 152.648C13.7868 153.255 13.4455 154.014 13.4455 154.924V186.216C13.4455 187.127 13.1041 187.923 12.4213 188.606C11.8145 189.213 11.0559 189.516 10.1455 189.516H4.11467ZM85.7385 188.606C86.4212 189.213 87.2178 189.516 88.1281 189.516H132.165C132.999 189.516 133.758 189.213 134.441 188.606C135.123 187.923 135.465 187.127 135.465 186.216V180.185C135.465 179.275 135.123 178.517 134.441 177.91C133.758 177.227 132.999 176.886 132.165 176.886H113.39C112.555 176.886 111.796 176.582 111.114 175.975C110.431 175.293 110.09 174.496 110.09 173.586V154.924C110.09 154.014 110.431 153.255 111.114 152.648C111.796 151.966 112.555 151.624 113.39 151.624H132.165C132.999 151.624 133.758 151.283 134.441 150.6C135.123 149.917 135.465 149.159 135.465 148.324V142.18C135.465 141.345 135.123 140.624 134.441 140.018C133.758 139.335 132.999 138.993 132.165 138.993H113.39C112.555 138.993 111.796 138.652 111.114 137.969C110.431 137.287 110.09 136.528 110.09 135.694V129.549C110.09 128.714 110.431 127.956 111.114 127.273C111.796 126.59 112.555 126.249 113.39 126.249H132.165C132.999 126.249 133.758 125.946 134.441 125.339C135.123 124.656 135.465 123.897 135.465 123.063V116.918C135.465 116.084 135.123 115.325 134.441 114.642C133.758 113.96 132.999 113.618 132.165 113.618H88.1281C87.2178 113.618 86.4212 113.96 85.7385 114.642C85.1316 115.325 84.8282 116.084 84.8282 116.918V186.216C84.8282 187.127 85.1316 187.923 85.7385 188.606ZM172.104 189.516C171.27 189.516 170.511 189.213 169.829 188.606C169.146 187.923 168.805 187.127 168.805 186.216V167.555C168.805 166.644 168.463 165.886 167.78 165.279C167.174 164.596 166.415 164.255 165.505 164.255H159.474C158.563 164.255 157.767 163.913 157.084 163.231C156.477 162.548 156.174 161.789 156.174 160.955V142.18C156.174 141.345 155.832 140.624 155.15 140.018C154.543 139.335 153.784 138.993 152.874 138.993H146.843C145.933 138.993 145.136 138.652 144.453 137.969C143.847 137.287 143.543 136.528 143.543 135.694V116.918C143.543 116.084 143.847 115.325 144.453 114.642C145.136 113.96 145.933 113.618 146.843 113.618H178.135C179.046 113.618 179.804 113.96 180.411 114.642C181.094 115.325 181.435 116.084 181.435 116.918V160.955C181.435 161.789 181.777 162.548 182.459 163.231C183.142 163.913 183.901 164.255 184.735 164.255H190.88C191.714 164.255 192.435 163.913 193.042 163.231C193.725 162.548 194.066 161.789 194.066 160.955V116.918C194.066 116.084 194.407 115.325 195.09 114.642C195.773 113.96 196.531 113.618 197.366 113.618H216.141C216.976 113.618 217.734 113.96 218.417 114.642C219.1 115.325 219.441 116.084 219.441 116.918V160.955C219.441 161.789 219.745 162.548 220.351 163.231C221.034 163.913 221.831 164.255 222.741 164.255H228.772C229.606 164.255 230.365 163.913 231.048 163.231C231.73 162.548 232.072 161.789 232.072 160.955V116.918C232.072 116.084 232.375 115.325 232.982 114.642C233.665 113.96 234.461 113.618 235.372 113.618H254.033C254.944 113.618 255.702 113.96 256.309 114.642C256.992 115.325 257.333 116.084 257.333 116.918V135.694C257.333 136.528 256.992 137.287 256.309 137.969C255.702 138.652 254.944 138.993 254.033 138.993H248.002C247.092 138.993 246.296 139.335 245.613 140.018C245.006 140.624 244.703 141.345 244.703 142.18V160.955C244.703 161.789 244.361 162.548 243.678 163.231C243.072 163.913 242.313 164.255 241.403 164.255H235.372C234.461 164.255 233.665 164.596 232.982 165.279C232.375 165.886 232.072 166.644 232.072 167.555V186.216C232.072 187.127 231.73 187.923 231.048 188.606C230.365 189.213 229.606 189.516 228.772 189.516H209.997C209.162 189.516 208.403 189.213 207.721 188.606C207.114 187.923 206.81 187.127 206.81 186.216V167.555C206.81 166.644 206.469 165.886 205.786 165.279C205.104 164.596 204.345 164.255 203.51 164.255H197.366C196.531 164.255 195.773 164.596 195.09 165.279C194.407 165.886 194.066 166.644 194.066 167.555V186.216C194.066 187.127 193.725 187.923 193.042 188.606C192.435 189.213 191.714 189.516 190.88 189.516H172.104ZM268.712 189.516C267.801 189.516 267.005 189.213 266.322 188.606C265.715 187.923 265.412 187.127 265.412 186.216V180.185C265.412 179.275 265.715 178.517 266.322 177.91C267.005 177.227 267.801 176.886 268.712 176.886H287.373C288.284 176.886 289.042 176.582 289.649 175.975C290.332 175.293 290.673 174.496 290.673 173.586V167.555C290.673 166.644 290.332 165.886 289.649 165.279C289.042 164.596 288.284 164.255 287.373 164.255H281.342C280.508 164.255 279.749 163.913 279.067 163.231C278.384 162.548 278.042 161.789 278.042 160.955V154.924C278.042 154.014 277.701 153.255 277.018 152.648C276.411 151.966 275.653 151.624 274.743 151.624H268.712C267.801 151.624 267.005 151.283 266.322 150.6C265.715 149.917 265.412 149.159 265.412 148.324V129.549C265.412 128.714 265.715 127.956 266.322 127.273C267.005 126.59 267.801 126.249 268.712 126.249H274.743C275.653 126.249 276.411 125.946 277.018 125.339C277.701 124.656 278.042 123.897 278.042 123.063V116.918C278.042 116.084 278.384 115.325 279.067 114.642C279.749 113.96 280.508 113.618 281.342 113.618H312.748C313.583 113.618 314.341 113.96 315.024 114.642C315.707 115.325 316.048 116.084 316.048 116.918V123.063C316.048 123.897 315.707 124.656 315.024 125.339C314.341 125.946 313.583 126.249 312.748 126.249H293.973C293.139 126.249 292.38 126.59 291.697 127.273C291.014 127.956 290.673 128.714 290.673 129.549V135.694C290.673 136.528 291.014 137.287 291.697 137.969C292.38 138.652 293.139 138.993 293.973 138.993H300.118C300.952 138.993 301.673 139.335 302.28 140.018C302.962 140.624 303.304 141.345 303.304 142.18V148.324C303.304 149.159 303.645 149.917 304.328 150.6C305.011 151.283 305.769 151.624 306.604 151.624H312.748C313.583 151.624 314.341 151.966 315.024 152.648C315.707 153.255 316.048 154.014 316.048 154.924V173.586C316.048 174.496 315.707 175.293 315.024 175.975C314.341 176.582 313.583 176.886 312.748 176.886H306.604C305.769 176.886 305.011 177.227 304.328 177.91C303.645 178.517 303.304 179.275 303.304 180.185V186.216C303.304 187.127 302.962 187.923 302.28 188.606C301.673 189.213 300.952 189.516 300.118 189.516H268.712ZM256.155 76.5774C255.245 76.5774 254.448 76.274 253.765 75.6671C253.159 74.9844 252.855 74.1879 252.855 73.2775V67.2467C252.855 66.3363 253.159 65.5777 253.765 64.9708C254.448 64.2881 255.245 63.9467 256.155 63.9467H262.186C263.096 63.9467 263.855 63.6433 264.462 63.0364C265.144 62.3537 265.486 61.5571 265.486 60.6468V16.6101C265.486 15.7756 265.144 15.017 264.462 14.3343C263.855 13.6515 263.096 13.3101 262.186 13.3101H256.155C255.245 13.3101 254.448 13.0067 253.765 12.3998C253.159 11.7171 252.855 10.9585 252.855 10.124V3.97936C252.855 3.1449 253.159 2.3863 253.765 1.70356C254.448 1.02081 255.245 0.679443 256.155 0.679443H300.192C301.026 0.679443 301.785 1.02081 302.468 1.70356C303.15 2.3863 303.492 3.1449 303.492 3.97936V10.124C303.492 10.9585 303.15 11.7171 302.468 12.3998C301.785 13.0067 301.026 13.3101 300.192 13.3101H294.047C293.213 13.3101 292.454 13.6515 291.771 14.3343C291.089 15.017 290.747 15.7756 290.747 16.6101V60.6468C290.747 61.5571 291.089 62.3537 291.771 63.0364C292.454 63.6433 293.213 63.9467 294.047 63.9467H300.192C301.026 63.9467 301.785 64.2881 302.468 64.9708C303.15 65.5777 303.492 66.3363 303.492 67.2467V73.2775C303.492 74.1879 303.15 74.9844 302.468 75.6671C301.785 76.274 301.026 76.5774 300.192 76.5774H256.155ZM205.71 37.6612C205.103 38.344 204.382 38.6853 203.548 38.6853H197.403C196.568 38.6853 195.81 38.344 195.127 37.6612C194.444 36.9785 194.103 36.2199 194.103 35.3854V16.6101C194.103 15.7756 194.444 15.017 195.127 14.3343C195.81 13.6515 196.568 13.3101 197.403 13.3101H203.548C204.382 13.3101 205.103 13.6515 205.71 14.3343C206.392 15.017 206.734 15.7756 206.734 16.6101V35.3854C206.734 36.2199 206.392 36.9785 205.71 37.6612ZM169.752 75.6671C170.435 76.274 171.231 76.5774 172.142 76.5774H190.803C191.713 76.5774 192.472 76.274 193.079 75.6671C193.762 74.9844 194.103 74.1879 194.103 73.2775V54.6159C194.103 53.7056 194.444 52.947 195.127 52.3401C195.81 51.6574 196.568 51.316 197.403 51.316H203.548C204.382 51.316 205.103 51.6574 205.71 52.3401C206.392 52.947 206.734 53.7056 206.734 54.6159V73.2775C206.734 74.1879 207.075 74.9844 207.758 75.6671C208.441 76.274 209.199 76.5774 210.034 76.5774H228.809C229.643 76.5774 230.402 76.274 231.085 75.6671C231.768 74.9844 232.109 74.1879 232.109 73.2775V16.6101C232.109 15.7756 231.768 15.017 231.085 14.3343C230.402 13.6515 229.643 13.3101 228.809 13.3101H222.664C221.83 13.3101 221.071 13.0067 220.389 12.3998C219.782 11.7171 219.478 10.9585 219.478 10.124V3.97936C219.478 3.1449 219.137 2.3863 218.454 1.70356C217.771 1.02081 217.013 0.679443 216.178 0.679443H184.772C183.938 0.679443 183.179 1.02081 182.496 1.70356C181.814 2.3863 181.472 3.1449 181.472 3.97936V10.124C181.472 10.9585 181.131 11.7171 180.448 12.3998C179.841 13.0067 179.083 13.3101 178.172 13.3101H172.142C171.231 13.3101 170.435 13.6515 169.752 14.3343C169.145 15.017 168.842 15.7756 168.842 16.6101V73.2775C168.842 74.1879 169.145 74.9844 169.752 75.6671ZM88.1281 76.5774C87.2178 76.5774 86.4212 76.274 85.7385 75.6671C85.1316 74.9844 84.8282 74.1879 84.8282 73.2775V3.97936C84.8282 3.1449 85.1316 2.3863 85.7385 1.70356C86.4212 1.02081 87.2178 0.679443 88.1281 0.679443H106.79C107.7 0.679443 108.459 1.02081 109.065 1.70356C109.748 2.3863 110.09 3.1449 110.09 3.97936V22.7547C110.09 23.5892 110.431 24.3478 111.114 25.0305C111.796 25.7133 112.555 26.0546 113.39 26.0546H119.534C120.369 26.0546 121.089 25.7133 121.696 25.0305C122.379 24.3478 122.72 23.5892 122.72 22.7547V3.97936C122.72 3.1449 123.062 2.3863 123.744 1.70356C124.427 1.02081 125.186 0.679443 126.02 0.679443H144.796C145.63 0.679443 146.389 1.02081 147.071 1.70356C147.754 2.3863 148.095 3.1449 148.095 3.97936V73.2775C148.095 74.1879 147.754 74.9844 147.071 75.6671C146.389 76.274 145.63 76.5774 144.796 76.5774H126.02C125.186 76.5774 124.427 76.274 123.744 75.6671C123.062 74.9844 122.72 74.1879 122.72 73.2775V41.9853C122.72 41.0749 122.379 40.3163 121.696 39.7095C121.089 39.0267 120.369 38.6853 119.534 38.6853H113.39C112.555 38.6853 111.796 39.0267 111.114 39.7095C110.431 40.3163 110.09 41.0749 110.09 41.9853V73.2775C110.09 74.1879 109.748 74.9844 109.065 75.6671C108.459 76.274 107.7 76.5774 106.79 76.5774H88.1281ZM14.4696 75.6671C15.1523 76.274 15.9109 76.5774 16.7454 76.5774H48.1514C48.9859 76.5774 49.7445 76.274 50.4272 75.6671C51.11 74.9844 51.4514 74.1879 51.4514 73.2775V67.2467C51.4514 66.3363 51.7548 65.5777 52.3617 64.9708C53.0444 64.2881 53.803 63.9467 54.6375 63.9467H60.7821C61.6166 63.9467 62.3752 63.6433 63.0579 63.0364C63.7407 62.3537 64.0821 61.5571 64.0821 60.6468V54.6159C64.0821 53.7056 63.7407 52.947 63.0579 52.3401C62.3752 51.6574 61.6166 51.316 60.7821 51.316H54.6375C53.803 51.316 53.0444 51.6574 52.3617 52.3401C51.7548 52.947 51.4514 53.7056 51.4514 54.6159V60.6468C51.4514 61.5571 51.11 62.3537 50.4272 63.0364C49.7445 63.6433 48.9859 63.9467 48.1514 63.9467H29.3761C28.5416 63.9467 27.783 63.6433 27.1003 63.0364C26.4175 62.3537 26.0762 61.5571 26.0762 60.6468V16.6101C26.0762 15.7756 26.4175 15.017 27.1003 14.3343C27.783 13.6515 28.5416 13.3101 29.3761 13.3101H48.1514C48.9859 13.3101 49.7445 13.6515 50.4272 14.3343C51.11 15.017 51.4514 15.7756 51.4514 16.6101V22.7547C51.4514 23.5892 51.7548 24.3478 52.3617 25.0305C53.0444 25.7133 53.803 26.0546 54.6375 26.0546H60.7821C61.6166 26.0546 62.3752 25.7133 63.0579 25.0305C63.7407 24.3478 64.0821 23.5892 64.0821 22.7547V3.97936C64.0821 3.1449 63.7407 2.3863 63.0579 1.70356C62.3752 1.02081 61.6166 0.679443 60.7821 0.679443H16.7454C15.9109 0.679443 15.1523 1.02081 14.4696 1.70356C13.7868 2.3863 13.4455 3.1449 13.4455 3.97936V10.124C13.4455 10.9585 13.1041 11.7171 12.4213 12.3998C11.8145 13.0067 11.0559 13.3101 10.1455 13.3101H4.11467C3.20435 13.3101 2.40782 13.6515 1.72508 14.3343C1.1182 15.017 0.814758 15.7756 0.814758 16.6101V60.6468C0.814758 61.5571 1.1182 62.3537 1.72508 63.0364C2.40782 63.6433 3.20435 63.9467 4.11467 63.9467H10.1455C11.0559 63.9467 11.8145 64.2881 12.4213 64.9708C13.1041 65.5777 13.4455 66.3363 13.4455 67.2467V73.2775C13.4455 74.1879 13.7868 74.9844 14.4696 75.6671Z" fill="#B589FF"/>
<path fill-rule="evenodd" clip-rule="evenodd" d="M383.872 189.516C383.038 189.516 382.279 189.213 381.597 188.606C380.914 187.923 380.572 187.127 380.572 186.216V180.185C380.572 179.275 380.231 178.516 379.548 177.91C378.941 177.227 378.183 176.885 377.273 176.885H371.242C370.331 176.885 369.535 176.582 368.852 175.975C368.245 175.292 367.942 174.496 367.942 173.586V129.549C367.942 128.714 368.245 127.956 368.852 127.273C369.535 126.59 370.331 126.249 371.242 126.249H377.273C378.183 126.249 378.941 125.945 379.548 125.339C380.231 124.656 380.572 123.897 380.572 123.063V116.918C380.572 116.084 380.914 115.325 381.597 114.642C382.279 113.96 383.038 113.618 383.872 113.618H415.278C416.113 113.618 416.872 113.96 417.554 114.642C418.237 115.325 418.578 116.084 418.578 116.918V123.063C418.578 123.897 418.882 124.656 419.489 125.339C420.171 125.945 420.93 126.249 421.764 126.249H427.909C428.744 126.249 429.502 126.59 430.185 127.273C430.868 127.956 431.209 128.714 431.209 129.549V173.586C431.209 174.496 430.868 175.292 430.185 175.975C429.502 176.582 428.744 176.885 427.909 176.885H421.764C420.93 176.885 420.171 177.227 419.489 177.91C418.882 178.516 418.578 179.275 418.578 180.185V186.216C418.578 187.127 418.237 187.923 417.554 188.606C416.872 189.213 416.113 189.516 415.278 189.516H383.872ZM402.648 176.885C403.482 176.885 404.203 176.582 404.81 175.975C405.493 175.292 405.834 174.496 405.834 173.586V129.549C405.834 128.714 405.493 127.956 404.81 127.273C404.203 126.59 403.482 126.249 402.648 126.249H396.503C395.669 126.249 394.91 126.59 394.227 127.273C393.545 127.956 393.203 128.714 393.203 129.549V173.586C393.203 174.496 393.545 175.292 394.227 175.975C394.91 176.582 395.669 176.885 396.503 176.885H402.648ZM442.625 188.606C443.308 189.213 444.104 189.516 445.015 189.516H451.045C451.956 189.516 452.714 189.213 453.321 188.606C454.004 187.923 454.345 187.127 454.345 186.216V154.924C454.345 154.014 454.687 153.255 455.369 152.648C456.052 151.965 456.811 151.624 457.645 151.624H463.676C464.586 151.624 465.345 151.965 465.952 152.648C466.635 153.255 466.976 154.014 466.976 154.924V160.955C466.976 161.789 467.317 162.548 468 163.231C468.683 163.913 469.442 164.255 470.276 164.255H476.421C477.255 164.255 477.976 164.596 478.583 165.279C479.265 165.886 479.607 166.644 479.607 167.555V186.216C479.607 187.127 479.948 187.923 480.631 188.606C481.314 189.213 482.072 189.516 482.907 189.516H501.682C502.517 189.516 503.275 189.213 503.958 188.606C504.641 187.923 504.982 187.127 504.982 186.216V116.918C504.982 116.084 504.641 115.325 503.958 114.642C503.275 113.96 502.517 113.618 501.682 113.618H495.537C494.703 113.618 493.944 113.96 493.262 114.642C492.655 115.325 492.351 116.084 492.351 116.918V135.693C492.351 136.528 492.01 137.287 491.327 137.969C490.644 138.652 489.886 138.993 489.051 138.993H482.907C482.072 138.993 481.314 138.652 480.631 137.969C479.948 137.287 479.607 136.528 479.607 135.693V129.549C479.607 128.714 479.265 127.956 478.583 127.273C477.976 126.59 477.255 126.249 476.421 126.249H470.276C469.442 126.249 468.683 125.945 468 125.339C467.317 124.656 466.976 123.897 466.976 123.063V116.918C466.976 116.084 466.635 115.325 465.952 114.642C465.345 113.96 464.586 113.618 463.676 113.618H445.015C444.104 113.618 443.308 113.96 442.625 114.642C442.018 115.325 441.715 116.084 441.715 116.918V186.216C441.715 187.127 442.018 187.923 442.625 188.606ZM516.398 188.606C517.081 189.213 517.877 189.516 518.787 189.516H562.824C563.659 189.516 564.417 189.213 565.1 188.606C565.783 187.923 566.124 187.127 566.124 186.216V180.185C566.124 179.275 565.783 178.516 565.1 177.91C564.417 177.227 563.659 176.885 562.824 176.885H544.049C543.214 176.885 542.456 176.582 541.773 175.975C541.09 175.292 540.749 174.496 540.749 173.586V154.924C540.749 154.014 541.09 153.255 541.773 152.648C542.456 151.965 543.214 151.624 544.049 151.624H562.824C563.659 151.624 564.417 151.283 565.1 150.6C565.783 149.917 566.124 149.159 566.124 148.324V142.179C566.124 141.345 565.783 140.624 565.1 140.017C564.417 139.335 563.659 138.993 562.824 138.993H544.049C543.214 138.993 542.456 138.652 541.773 137.969C541.09 137.287 540.749 136.528 540.749 135.693V129.549C540.749 128.714 541.09 127.956 541.773 127.273C542.456 126.59 543.214 126.249 544.049 126.249H562.824C563.659 126.249 564.417 125.945 565.1 125.339C565.783 124.656 566.124 123.897 566.124 123.063V116.918C566.124 116.084 565.783 115.325 565.1 114.642C564.417 113.96 563.659 113.618 562.824 113.618H518.787C517.877 113.618 517.081 113.96 516.398 114.642C515.791 115.325 515.488 116.084 515.488 116.918V186.216C515.488 187.127 515.791 187.923 516.398 188.606ZM333.084 188.606C333.767 189.213 334.563 189.517 335.474 189.517H354.135C355.046 189.517 355.804 189.213 356.411 188.606C357.094 187.924 357.435 187.127 357.435 186.217V167.555C357.435 166.645 357.094 165.886 356.411 165.279C355.804 164.597 355.046 164.255 354.135 164.255H335.474C334.563 164.255 333.767 164.597 333.084 165.279C332.477 165.886 332.174 166.645 332.174 167.555V186.217C332.174 187.127 332.477 187.924 333.084 188.606Z" fill="#FFB46E"/>
</svg>
