<svg width="610" height="213" viewBox="0 0 610 213" fill="none" xmlns="http://www.w3.org/2000/svg">
<path d="M326.589 114.578C327.434 111.856 329.953 110 332.804 110H601.165C605.551 110 608.681 114.249 607.38 118.438L584.411 192.422C583.566 195.144 581.047 197 578.196 197H309.835C305.449 197 302.319 192.751 303.62 188.562L326.589 114.578Z" fill="#0BC9F2"/>
<path d="M25.2075 96C24.4958 96 23.8488 95.7412 23.2664 95.2236C22.6841 94.6413 22.393 93.9619 22.393 93.1855V88.0418C22.393 87.2654 22.1018 86.6184 21.5195 86.1008C21.0019 85.5185 20.3549 85.2273 19.5785 85.2273H14.4348C13.6584 85.2273 12.979 84.9685 12.3967 84.4509C11.8791 83.8686 11.6203 83.1893 11.6203 82.4129V44.8541C11.6203 44.1424 11.8791 43.4954 12.3967 42.9131C12.979 42.3308 13.6584 42.0396 14.4348 42.0396H19.5785C20.3549 42.0396 21.0019 41.7808 21.5195 41.2632C22.1018 40.6809 22.393 40.0339 22.393 39.3222V34.0814C22.393 33.3697 22.6841 32.7227 23.2664 32.1404C23.8488 31.5581 24.4958 31.267 25.2075 31.267H62.7662C63.4779 31.267 64.1249 31.5581 64.7072 32.1404C65.2896 32.7227 65.5807 33.3697 65.5807 34.0814V50.0949C65.5807 50.8066 65.2896 51.4536 64.7072 52.0359C64.1249 52.6182 63.4779 52.9093 62.7662 52.9093H57.5255C56.8138 52.9093 56.1668 52.6182 55.5844 52.0359C55.0668 51.4536 54.808 50.8066 54.808 50.0949V44.8541C54.808 44.1424 54.5169 43.4954 53.9346 42.9131C53.3523 42.3308 52.7053 42.0396 51.9936 42.0396H35.9801C35.2684 42.0396 34.6214 42.3308 34.0391 42.9131C33.4568 43.4954 33.1657 44.1424 33.1657 44.8541V82.4129C33.1657 83.1893 33.4568 83.8686 34.0391 84.4509C34.6214 84.9685 35.2684 85.2273 35.9801 85.2273H51.9936C52.7053 85.2273 53.3523 84.9685 53.9346 84.4509C54.5169 83.8686 54.808 83.1893 54.808 82.4129V77.2691C54.808 76.4927 55.0668 75.8457 55.5844 75.3281C56.1668 74.7458 56.8138 74.4547 57.5255 74.4547H62.7662C63.4779 74.4547 64.1249 74.7458 64.7072 75.3281C65.2896 75.8457 65.5807 76.4927 65.5807 77.2691V82.4129C65.5807 83.1893 65.2896 83.8686 64.7072 84.4509C64.1249 84.9685 63.4779 85.2273 62.7662 85.2273H57.5255C56.8138 85.2273 56.1668 85.5185 55.5844 86.1008C55.0668 86.6184 54.808 87.2654 54.808 88.0418V93.1855C54.808 93.9619 54.5169 94.6413 53.9346 95.2236C53.3523 95.7412 52.7053 96 51.9936 96H25.2075ZM86.0896 96C85.3131 96 84.6338 95.7412 84.0515 95.2236C83.5339 94.6413 83.2751 93.9619 83.2751 93.1855V34.0814C83.2751 33.3697 83.5339 32.7227 84.0515 32.1404C84.6338 31.5581 85.3131 31.267 86.0896 31.267H102.006C102.782 31.267 103.429 31.5581 103.947 32.1404C104.529 32.7227 104.82 33.3697 104.82 34.0814V50.0949C104.82 50.8066 105.112 51.4536 105.694 52.0359C106.276 52.6182 106.923 52.9093 107.635 52.9093H112.876C113.587 52.9093 114.202 52.6182 114.72 52.0359C115.302 51.4536 115.593 50.8066 115.593 50.0949V34.0814C115.593 33.3697 115.884 32.7227 116.467 32.1404C117.049 31.5581 117.696 31.267 118.408 31.267H134.421C135.133 31.267 135.78 31.5581 136.362 32.1404C136.944 32.7227 137.235 33.3697 137.235 34.0814V93.1855C137.235 93.9619 136.944 94.6413 136.362 95.2236C135.78 95.7412 135.133 96 134.421 96H118.408C117.696 96 117.049 95.7412 116.467 95.2236C115.884 94.6413 115.593 93.9619 115.593 93.1855V66.4965C115.593 65.7201 115.302 65.0731 114.72 64.5555C114.202 63.9732 113.587 63.682 112.876 63.682H107.635C106.923 63.682 106.276 63.9732 105.694 64.5555C105.112 65.0731 104.82 65.7201 104.82 66.4965V93.1855C104.82 93.9619 104.529 94.6413 103.947 95.2236C103.429 95.7412 102.782 96 102.006 96H86.0896ZM184.53 63.682C185.242 63.682 185.857 63.3908 186.374 62.8085C186.957 62.2262 187.248 61.5792 187.248 60.8675V44.8541C187.248 44.1424 186.957 43.4954 186.374 42.9131C185.857 42.3308 185.242 42.0396 184.53 42.0396H179.29C178.578 42.0396 177.931 42.3308 177.349 42.9131C176.766 43.4954 176.475 44.1424 176.475 44.8541V60.8675C176.475 61.5792 176.766 62.2262 177.349 62.8085C177.931 63.3908 178.578 63.682 179.29 63.682H184.53ZM157.744 96C156.968 96 156.289 95.7412 155.706 95.2236C155.189 94.6413 154.93 93.9619 154.93 93.1855V44.8541C154.93 44.1424 155.189 43.4954 155.706 42.9131C156.289 42.3308 156.968 42.0396 157.744 42.0396H162.888C163.664 42.0396 164.311 41.7808 164.829 41.2632C165.411 40.6809 165.702 40.0339 165.702 39.3222V34.0814C165.702 33.3697 165.994 32.7227 166.576 32.1404C167.158 31.5581 167.805 31.267 168.517 31.267H195.303C196.015 31.267 196.662 31.5581 197.244 32.1404C197.826 32.7227 198.118 33.3697 198.118 34.0814V39.3222C198.118 40.0339 198.376 40.6809 198.894 41.2632C199.476 41.7808 200.123 42.0396 200.835 42.0396H206.076C206.787 42.0396 207.434 42.3308 208.017 42.9131C208.599 43.4954 208.89 44.1424 208.89 44.8541V93.1855C208.89 93.9619 208.599 94.6413 208.017 95.2236C207.434 95.7412 206.787 96 206.076 96H190.062C189.351 96 188.704 95.7412 188.121 95.2236C187.539 94.6413 187.248 93.9619 187.248 93.1855V77.2691C187.248 76.4927 186.957 75.8457 186.374 75.3281C185.857 74.7458 185.242 74.4547 184.53 74.4547H179.29C178.578 74.4547 177.931 74.7458 177.349 75.3281C176.766 75.8457 176.475 76.4927 176.475 77.2691V93.1855C176.475 93.9619 176.184 94.6413 175.602 95.2236C175.084 95.7412 174.437 96 173.661 96H157.744ZM229.399 96C228.623 96 227.943 95.7412 227.361 95.2236C226.843 94.6413 226.585 93.9619 226.585 93.1855V88.0418C226.585 87.2654 226.843 86.6184 227.361 86.1008C227.943 85.5185 228.623 85.2273 229.399 85.2273H234.543C235.319 85.2273 235.966 84.9685 236.484 84.4509C237.066 83.8686 237.357 83.1893 237.357 82.4129V44.8541C237.357 44.1424 237.066 43.4954 236.484 42.9131C235.966 42.3308 235.319 42.0396 234.543 42.0396H229.399C228.623 42.0396 227.943 41.7808 227.361 41.2632C226.843 40.6809 226.585 40.0339 226.585 39.3222V34.0814C226.585 33.3697 226.843 32.7227 227.361 32.1404C227.943 31.5581 228.623 31.267 229.399 31.267H266.958C267.67 31.267 268.317 31.5581 268.899 32.1404C269.481 32.7227 269.772 33.3697 269.772 34.0814V39.3222C269.772 40.0339 269.481 40.6809 268.899 41.2632C268.317 41.7808 267.67 42.0396 266.958 42.0396H261.717C261.005 42.0396 260.358 42.3308 259.776 42.9131C259.194 43.4954 258.903 44.1424 258.903 44.8541V82.4129C258.903 83.1893 259.194 83.8686 259.776 84.4509C260.358 84.9685 261.005 85.2273 261.717 85.2273H266.958C267.67 85.2273 268.317 85.5185 268.899 86.1008C269.481 86.6184 269.772 87.2654 269.772 88.0418V93.1855C269.772 93.9619 269.481 94.6413 268.899 95.2236C268.317 95.7412 267.67 96 266.958 96H229.399ZM290.249 96C289.473 96 288.794 95.7412 288.211 95.2236C287.694 94.6413 287.435 93.9619 287.435 93.1855V34.0814C287.435 33.3697 287.694 32.7227 288.211 32.1404C288.794 31.5581 289.473 31.267 290.249 31.267H306.166C306.942 31.267 307.589 31.5581 308.107 32.1404C308.689 32.7227 308.98 33.3697 308.98 34.0814V39.3222C308.98 40.0339 309.271 40.6809 309.854 41.2632C310.436 41.7808 311.083 42.0396 311.795 42.0396H317.035C317.747 42.0396 318.362 42.3308 318.879 42.9131C319.462 43.4954 319.753 44.1424 319.753 44.8541V50.0949C319.753 50.8066 320.044 51.4536 320.626 52.0359C321.209 52.6182 321.856 52.9093 322.567 52.9093H327.808C328.52 52.9093 329.167 52.6182 329.749 52.0359C330.331 51.4536 330.623 50.8066 330.623 50.0949V34.0814C330.623 33.3697 330.881 32.7227 331.399 32.1404C331.981 31.5581 332.628 31.267 333.34 31.267H338.581C339.292 31.267 339.939 31.5581 340.522 32.1404C341.104 32.7227 341.395 33.3697 341.395 34.0814V93.1855C341.395 93.9619 341.104 94.6413 340.522 95.2236C339.939 95.7412 339.292 96 338.581 96H322.567C321.856 96 321.209 95.7412 320.626 95.2236C320.044 94.6413 319.753 93.9619 319.753 93.1855V77.2691C319.753 76.4927 319.462 75.8457 318.879 75.3281C318.362 74.7458 317.747 74.4547 317.035 74.4547H311.795C311.083 74.4547 310.436 74.1635 309.854 73.5812C309.271 72.9989 308.98 72.3519 308.98 71.6402V66.4965C308.98 65.7201 308.689 65.0731 308.107 64.5555C307.589 63.9732 306.942 63.682 306.166 63.682H301.022C300.31 63.682 299.663 63.9732 299.081 64.5555C298.499 65.0731 298.208 65.7201 298.208 66.4965V93.1855C298.208 93.9619 297.916 94.6413 297.334 95.2236C296.816 95.7412 296.169 96 295.393 96H290.249ZM14.4348 186C13.6584 186 12.979 185.741 12.3967 185.224C11.8791 184.641 11.6203 183.962 11.6203 183.186V124.081C11.6203 123.37 11.8791 122.723 12.3967 122.14C12.979 121.558 13.6584 121.267 14.4348 121.267H30.3512C31.1276 121.267 31.7746 121.558 32.2922 122.14C32.8745 122.723 33.1657 123.37 33.1657 124.081V129.322C33.1657 130.034 33.4568 130.681 34.0391 131.263C34.6214 131.781 35.2684 132.04 35.9801 132.04H41.2209C41.9326 132.04 42.5473 132.331 43.0649 132.913C43.6472 133.495 43.9383 134.142 43.9383 134.854V140.095C43.9383 140.807 44.2295 141.454 44.8118 142.036C45.3941 142.618 46.0411 142.909 46.7528 142.909H51.9936C52.7053 142.909 53.3523 142.618 53.9346 142.036C54.5169 141.454 54.808 140.807 54.808 140.095V124.081C54.808 123.37 55.0668 122.723 55.5844 122.14C56.1668 121.558 56.8138 121.267 57.5255 121.267H62.7662C63.4779 121.267 64.1249 121.558 64.7072 122.14C65.2896 122.723 65.5807 123.37 65.5807 124.081V183.186C65.5807 183.962 65.2896 184.641 64.7072 185.224C64.1249 185.741 63.4779 186 62.7662 186H46.7528C46.0411 186 45.3941 185.741 44.8118 185.224C44.2295 184.641 43.9383 183.962 43.9383 183.186V167.269C43.9383 166.493 43.6472 165.846 43.0649 165.328C42.5473 164.746 41.9326 164.455 41.2209 164.455H35.9801C35.2684 164.455 34.6214 164.164 34.0391 163.581C33.4568 162.999 33.1657 162.352 33.1657 161.64V156.496C33.1657 155.72 32.8745 155.073 32.2922 154.555C31.7746 153.973 31.1276 153.682 30.3512 153.682H25.2075C24.4958 153.682 23.8488 153.973 23.2664 154.555C22.6841 155.073 22.393 155.72 22.393 156.496V183.186C22.393 183.962 22.1018 184.641 21.5195 185.224C21.0019 185.741 20.3549 186 19.5785 186H14.4348ZM86.0896 186C85.3131 186 84.6338 185.741 84.0515 185.224C83.5339 184.641 83.2751 183.962 83.2751 183.186V124.081C83.2751 123.37 83.5339 122.723 84.0515 122.14C84.6338 121.558 85.3131 121.267 86.0896 121.267H123.648C124.36 121.267 125.007 121.558 125.589 122.14C126.172 122.723 126.463 123.37 126.463 124.081V129.322C126.463 130.034 126.172 130.681 125.589 131.263C125.007 131.781 124.36 132.04 123.648 132.04H107.635C106.923 132.04 106.276 132.331 105.694 132.913C105.112 133.495 104.82 134.142 104.82 134.854V140.095C104.82 140.807 105.112 141.454 105.694 142.036C106.276 142.618 106.923 142.909 107.635 142.909H123.648C124.36 142.909 125.007 143.2 125.589 143.783C126.172 144.3 126.463 144.915 126.463 145.627V150.868C126.463 151.579 126.172 152.226 125.589 152.809C125.007 153.391 124.36 153.682 123.648 153.682H107.635C106.923 153.682 106.276 153.973 105.694 154.555C105.112 155.073 104.82 155.72 104.82 156.496V172.413C104.82 173.189 105.112 173.869 105.694 174.451C106.276 174.969 106.923 175.227 107.635 175.227H123.648C124.36 175.227 125.007 175.518 125.589 176.101C126.172 176.618 126.463 177.265 126.463 178.042V183.186C126.463 183.962 126.172 184.641 125.589 185.224C125.007 185.741 124.36 186 123.648 186H86.0896ZM157.712 186C157.001 186 156.354 185.741 155.771 185.224C155.189 184.641 154.898 183.962 154.898 183.186V167.269C154.898 166.493 154.607 165.846 154.025 165.328C153.507 164.746 152.86 164.455 152.084 164.455H146.94C146.163 164.455 145.484 164.164 144.902 163.581C144.384 162.999 144.125 162.352 144.125 161.64V145.627C144.125 144.915 143.834 144.3 143.252 143.783C142.734 143.2 142.087 142.909 141.311 142.909H136.167C135.391 142.909 134.711 142.618 134.129 142.036C133.611 141.454 133.353 140.807 133.353 140.095V124.081C133.353 123.37 133.611 122.723 134.129 122.14C134.711 121.558 135.391 121.267 136.167 121.267H162.856C163.633 121.267 164.28 121.558 164.797 122.14C165.38 122.723 165.671 123.37 165.671 124.081V161.64C165.671 162.352 165.962 162.999 166.544 163.581C167.126 164.164 167.773 164.455 168.485 164.455H173.726C174.438 164.455 175.052 164.164 175.57 163.581C176.152 162.999 176.443 162.352 176.443 161.64V124.081C176.443 123.37 176.734 122.723 177.317 122.14C177.899 121.558 178.546 121.267 179.258 121.267H195.271C195.983 121.267 196.63 121.558 197.212 122.14C197.795 122.723 198.086 123.37 198.086 124.081V161.64C198.086 162.352 198.345 162.999 198.862 163.581C199.444 164.164 200.124 164.455 200.9 164.455H206.044C206.756 164.455 207.403 164.164 207.985 163.581C208.567 162.999 208.858 162.352 208.858 161.64V124.081C208.858 123.37 209.117 122.723 209.635 122.14C210.217 121.558 210.896 121.267 211.673 121.267H227.589C228.366 121.267 229.013 121.558 229.53 122.14C230.113 122.723 230.404 123.37 230.404 124.081V140.095C230.404 140.807 230.113 141.454 229.53 142.036C229.013 142.618 228.366 142.909 227.589 142.909H222.446C221.669 142.909 220.99 143.2 220.407 143.783C219.89 144.3 219.631 144.915 219.631 145.627V161.64C219.631 162.352 219.34 162.999 218.758 163.581C218.24 164.164 217.593 164.455 216.817 164.455H211.673C210.896 164.455 210.217 164.746 209.635 165.328C209.117 165.846 208.858 166.493 208.858 167.269V183.186C208.858 183.962 208.567 184.641 207.985 185.224C207.403 185.741 206.756 186 206.044 186H190.03C189.319 186 188.672 185.741 188.089 185.224C187.572 184.641 187.313 183.962 187.313 183.186V167.269C187.313 166.493 187.022 165.846 186.44 165.328C185.857 164.746 185.21 164.455 184.499 164.455H179.258C178.546 164.455 177.899 164.746 177.317 165.328C176.734 165.846 176.443 166.493 176.443 167.269V183.186C176.443 183.962 176.152 184.641 175.57 185.224C175.052 185.741 174.438 186 173.726 186H157.712ZM240.109 186C239.332 186 238.653 185.741 238.071 185.224C237.553 184.641 237.294 183.962 237.294 183.186V178.042C237.294 177.265 237.553 176.618 238.071 176.101C238.653 175.518 239.332 175.227 240.109 175.227H256.025C256.802 175.227 257.449 174.969 257.966 174.451C258.548 173.869 258.84 173.189 258.84 172.413V167.269C258.84 166.493 258.548 165.846 257.966 165.328C257.449 164.746 256.802 164.455 256.025 164.455H250.881C250.17 164.455 249.523 164.164 248.94 163.581C248.358 162.999 248.067 162.352 248.067 161.64V156.496C248.067 155.72 247.776 155.073 247.194 154.555C246.676 153.973 246.029 153.682 245.253 153.682H240.109C239.332 153.682 238.653 153.391 238.071 152.809C237.553 152.226 237.294 151.579 237.294 150.868V134.854C237.294 134.142 237.553 133.495 238.071 132.913C238.653 132.331 239.332 132.04 240.109 132.04H245.253C246.029 132.04 246.676 131.781 247.194 131.263C247.776 130.681 248.067 130.034 248.067 129.322V124.081C248.067 123.37 248.358 122.723 248.94 122.14C249.523 121.558 250.17 121.267 250.881 121.267H277.668C278.379 121.267 279.026 121.558 279.609 122.14C280.191 122.723 280.482 123.37 280.482 124.081V129.322C280.482 130.034 280.191 130.681 279.609 131.263C279.026 131.781 278.379 132.04 277.668 132.04H261.654C260.942 132.04 260.295 132.331 259.713 132.913C259.131 133.495 258.84 134.142 258.84 134.854V140.095C258.84 140.807 259.131 141.454 259.713 142.036C260.295 142.618 260.942 142.909 261.654 142.909H266.895C267.607 142.909 268.221 143.2 268.739 143.783C269.321 144.3 269.612 144.915 269.612 145.627V150.868C269.612 151.579 269.903 152.226 270.486 152.809C271.068 153.391 271.715 153.682 272.427 153.682H277.668C278.379 153.682 279.026 153.973 279.609 154.555C280.191 155.073 280.482 155.72 280.482 156.496V172.413C280.482 173.189 280.191 173.869 279.609 174.451C279.026 174.969 278.379 175.227 277.668 175.227H272.427C271.715 175.227 271.068 175.518 270.486 176.101C269.903 176.618 269.612 177.265 269.612 178.042V183.186C269.612 183.962 269.321 184.641 268.739 185.224C268.221 185.741 267.607 186 266.895 186H240.109Z" fill="#98F040"/>
<path d="M329.396 186C328.619 186 327.94 185.741 327.358 185.224C326.84 184.641 326.581 183.962 326.581 183.186V167.269C326.581 166.493 326.84 165.846 327.358 165.328C327.94 164.746 328.619 164.455 329.396 164.455H345.312C346.089 164.455 346.736 164.746 347.253 165.328C347.835 165.846 348.127 166.493 348.127 167.269V183.186C348.127 183.962 347.835 184.641 347.253 185.224C346.736 185.741 346.089 186 345.312 186H329.396ZM379.41 186C378.698 186 378.051 185.741 377.469 185.224C376.886 184.641 376.595 183.962 376.595 183.186V178.042C376.595 177.265 376.304 176.618 375.722 176.101C375.204 175.518 374.557 175.227 373.781 175.227H368.637C367.861 175.227 367.181 174.969 366.599 174.451C366.081 173.869 365.823 173.189 365.823 172.413V134.854C365.823 134.142 366.081 133.495 366.599 132.913C367.181 132.331 367.861 132.04 368.637 132.04H373.781C374.557 132.04 375.204 131.781 375.722 131.263C376.304 130.681 376.595 130.034 376.595 129.322V124.081C376.595 123.37 376.886 122.723 377.469 122.14C378.051 121.558 378.698 121.267 379.41 121.267H406.196C406.907 121.267 407.554 121.558 408.137 122.14C408.719 122.723 409.01 123.37 409.01 124.081V129.322C409.01 130.034 409.269 130.681 409.787 131.263C410.369 131.781 411.016 132.04 411.728 132.04H416.968C417.68 132.04 418.327 132.331 418.909 132.913C419.492 133.495 419.783 134.142 419.783 134.854V172.413C419.783 173.189 419.492 173.869 418.909 174.451C418.327 174.969 417.68 175.227 416.968 175.227H411.728C411.016 175.227 410.369 175.518 409.787 176.101C409.269 176.618 409.01 177.265 409.01 178.042V183.186C409.01 183.962 408.719 184.641 408.137 185.224C407.554 185.741 406.907 186 406.196 186H379.41ZM395.423 175.227C396.135 175.227 396.749 174.969 397.267 174.451C397.849 173.869 398.141 173.189 398.141 172.413V134.854C398.141 134.142 397.849 133.495 397.267 132.913C396.749 132.331 396.135 132.04 395.423 132.04H390.182C389.471 132.04 388.824 132.331 388.241 132.913C387.659 133.495 387.368 134.142 387.368 134.854V172.413C387.368 173.189 387.659 173.869 388.241 174.451C388.824 174.969 389.471 175.227 390.182 175.227H395.423ZM440.292 186C439.515 186 438.836 185.741 438.254 185.224C437.736 184.641 437.477 183.962 437.477 183.186V124.081C437.477 123.37 437.736 122.723 438.254 122.14C438.836 121.558 439.515 121.267 440.292 121.267H456.208C456.985 121.267 457.632 121.558 458.149 122.14C458.731 122.723 459.023 123.37 459.023 124.081V129.322C459.023 130.034 459.314 130.681 459.896 131.263C460.478 131.781 461.125 132.04 461.837 132.04H467.078C467.79 132.04 468.404 132.331 468.922 132.913C469.504 133.495 469.795 134.142 469.795 134.854V140.095C469.795 140.807 470.086 141.454 470.669 142.036C471.251 142.618 471.898 142.909 472.61 142.909H477.85C478.562 142.909 479.209 142.618 479.792 142.036C480.374 141.454 480.665 140.807 480.665 140.095V124.081C480.665 123.37 480.924 122.723 481.441 122.14C482.024 121.558 482.671 121.267 483.382 121.267H488.623C489.335 121.267 489.982 121.558 490.564 122.14C491.146 122.723 491.438 123.37 491.438 124.081V183.186C491.438 183.962 491.146 184.641 490.564 185.224C489.982 185.741 489.335 186 488.623 186H472.61C471.898 186 471.251 185.741 470.669 185.224C470.086 184.641 469.795 183.962 469.795 183.186V167.269C469.795 166.493 469.504 165.846 468.922 165.328C468.404 164.746 467.79 164.455 467.078 164.455H461.837C461.125 164.455 460.478 164.164 459.896 163.581C459.314 162.999 459.023 162.352 459.023 161.64V156.496C459.023 155.72 458.731 155.073 458.149 154.555C457.632 153.973 456.985 153.682 456.208 153.682H451.064C450.353 153.682 449.706 153.973 449.123 154.555C448.541 155.073 448.25 155.72 448.25 156.496V183.186C448.25 183.962 447.959 184.641 447.376 185.224C446.859 185.741 446.212 186 445.435 186H440.292ZM511.946 186C511.17 186 510.491 185.741 509.908 185.224C509.391 184.641 509.132 183.962 509.132 183.186V124.081C509.132 123.37 509.391 122.723 509.908 122.14C510.491 121.558 511.17 121.267 511.946 121.267H549.505C550.217 121.267 550.864 121.558 551.446 122.14C552.029 122.723 552.32 123.37 552.32 124.081V129.322C552.32 130.034 552.029 130.681 551.446 131.263C550.864 131.781 550.217 132.04 549.505 132.04H533.492C532.78 132.04 532.133 132.331 531.551 132.913C530.968 133.495 530.677 134.142 530.677 134.854V140.095C530.677 140.807 530.968 141.454 531.551 142.036C532.133 142.618 532.78 142.909 533.492 142.909H549.505C550.217 142.909 550.864 143.2 551.446 143.783C552.029 144.3 552.32 144.915 552.32 145.627V150.868C552.32 151.579 552.029 152.226 551.446 152.809C550.864 153.391 550.217 153.682 549.505 153.682H533.492C532.78 153.682 532.133 153.973 531.551 154.555C530.968 155.073 530.677 155.72 530.677 156.496V172.413C530.677 173.189 530.968 173.869 531.551 174.451C532.133 174.969 532.78 175.227 533.492 175.227H549.505C550.217 175.227 550.864 175.518 551.446 176.101C552.029 176.618 552.32 177.265 552.32 178.042V183.186C552.32 183.962 552.029 184.641 551.446 185.224C550.864 185.741 550.217 186 549.505 186H511.946Z" fill="black"/>
</svg>
