<svg width="186" height="85" viewBox="0 0 186 85" fill="none" xmlns="http://www.w3.org/2000/svg">
<g filter="url(#filter0_d_150_102)">
<path fill-rule="evenodd" clip-rule="evenodd" d="M1.62695 41.5C1.62695 18.9265 19.9264 0.627075 42.4998 0.627075H144.296C166.87 0.627075 185.169 18.9265 185.169 41.5C185.169 64.0734 166.87 82.3728 144.296 82.3728H42.4998C19.9264 82.3728 1.62695 64.0734 1.62695 41.5ZM42.4998 9.88131H144.296C159.285 9.88131 171.837 20.3099 175.093 34.3068C175.31 35.2383 174.582 36.1017 173.626 36.1017H136.364C135.655 36.1017 135.043 35.6161 134.835 34.9383C132.032 25.7886 123.517 19.1356 113.449 19.1356H73.3473C60.9958 19.1356 50.9829 29.1484 50.9829 41.5C50.9829 53.8515 60.9958 63.8644 73.3473 63.8644H113.449C124.036 63.8644 132.905 56.5079 135.223 46.6277C135.394 45.8976 136.03 45.3559 136.78 45.3559H173.941C174.867 45.3559 175.587 46.1674 175.424 47.0787C172.79 61.8805 159.855 73.1186 144.296 73.1186H42.4998C25.0373 73.1186 10.8812 58.9624 10.8812 41.5C10.8812 24.0375 25.0373 9.88131 42.4998 9.88131ZM82.3517 58.8118C82.6862 59.0955 83.0579 59.2373 83.4668 59.2373H103.33C103.739 59.2373 104.11 59.0955 104.445 58.8118C104.779 58.4927 104.947 58.1204 104.947 57.6949V54.8761C104.947 54.4506 105.095 54.096 105.393 53.8124C105.727 53.4933 106.099 53.3337 106.508 53.3337H109.519C109.928 53.3337 110.299 53.1919 110.634 52.9082C110.968 52.5891 111.136 52.2168 111.136 51.7914V31.2087C111.136 30.8186 110.968 30.4641 110.634 30.1449C110.299 29.8258 109.928 29.6663 109.519 29.6663H106.508C106.099 29.6663 105.727 29.5245 105.393 29.2408C105.095 28.9217 104.947 28.5671 104.947 28.1771V25.3051C104.947 24.9151 104.779 24.5605 104.445 24.2414C104.11 23.9223 103.739 23.7627 103.33 23.7627H83.4668C83.0579 23.7627 82.6862 23.9223 82.3517 24.2414C82.0171 24.5605 81.8499 24.9151 81.8499 25.3051V28.1771C81.8499 28.5671 81.6826 28.9217 81.3481 29.2408C81.0507 29.5245 80.679 29.6663 80.233 29.6663H77.2779C76.8319 29.6663 76.4416 29.8258 76.1071 30.1449C75.8097 30.4641 75.661 30.8186 75.661 31.2087V51.7914C75.661 52.2168 75.8097 52.5891 76.1071 52.9082C76.4416 53.1919 76.8319 53.3337 77.2779 53.3337H80.233C80.679 53.3337 81.0507 53.4933 81.3481 53.8124C81.6826 54.096 81.8499 54.4506 81.8499 54.8761V57.6949C81.8499 58.1204 82.0171 58.4927 82.3517 58.8118Z" fill="#160E28"/>
</g>
<defs>
<filter id="filter0_d_150_102" x="0.814126" y="0.627075" width="185.169" height="83.981" filterUnits="userSpaceOnUse" color-interpolation-filters="sRGB">
<feFlood flood-opacity="0" result="BackgroundImageFix"/>
<feColorMatrix in="SourceAlpha" type="matrix" values="0 0 0 0 0 0 0 0 0 0 0 0 0 0 0 0 0 0 127 0" result="hardAlpha"/>
<feOffset dy="1.42245"/>
<feGaussianBlur stdDeviation="0.406414"/>
<feComposite in2="hardAlpha" operator="out"/>
<feColorMatrix type="matrix" values="0 0 0 0 0.598641 0 0 0 0 1 0 0 0 0 0.366276 0 0 0 0.5 0"/>
<feBlend mode="normal" in2="BackgroundImageFix" result="effect1_dropShadow_150_102"/>
<feBlend mode="normal" in="SourceGraphic" in2="effect1_dropShadow_150_102" result="shape"/>
</filter>
</defs>
</svg>
