<svg width="459" height="205" viewBox="0 0 459 205" fill="none" xmlns="http://www.w3.org/2000/svg">
<path fill-rule="evenodd" clip-rule="evenodd" d="M0.615936 102.098C0.615936 45.8024 46.2526 0.165771 102.548 0.165771H356.417C412.713 0.165771 458.35 45.8024 458.35 102.098C458.35 158.394 412.713 204.03 356.417 204.03H102.548C46.2526 204.03 0.615936 158.394 0.615936 102.098ZM102.548 23.2448H356.417C393.796 23.2448 425.1 49.2525 433.221 84.1592C433.762 86.4822 431.946 88.6353 429.561 88.6353H336.635C334.868 88.6353 333.341 87.4244 332.823 85.734C325.83 62.9159 304.596 46.3238 279.487 46.3238H179.478C148.675 46.3238 123.704 71.2948 123.704 102.098C123.704 132.901 148.675 157.872 179.478 157.872H279.487C305.89 157.872 328.008 139.526 333.789 114.886C334.216 113.065 335.801 111.714 337.671 111.714H430.348C432.656 111.714 434.452 113.738 434.047 116.011C427.476 152.925 395.22 180.951 356.417 180.951H102.548C58.9988 180.951 23.695 145.648 23.695 102.098C23.695 58.5486 58.9988 23.2448 102.548 23.2448ZM201.934 145.272C202.768 145.979 203.695 146.333 204.715 146.333H254.251C255.271 146.333 256.198 145.979 257.032 145.272C257.866 144.476 258.283 143.547 258.283 142.486V135.457C258.283 134.395 258.654 133.511 259.396 132.804C260.23 132.008 261.157 131.61 262.177 131.61H269.685C270.705 131.61 271.632 131.256 272.466 130.549C273.3 129.753 273.718 128.825 273.718 127.764V76.4326C273.718 75.4599 273.3 74.5757 272.466 73.7798C271.632 72.984 270.705 72.5861 269.685 72.5861H262.177C261.157 72.5861 260.23 72.2324 259.396 71.525C258.654 70.7292 258.283 69.8449 258.283 68.8722V61.7098C258.283 60.7371 257.866 59.8528 257.032 59.057C256.198 58.2612 255.271 57.8633 254.251 57.8633H204.715C203.695 57.8633 202.768 58.2612 201.934 59.057C201.099 59.8528 200.682 60.7371 200.682 61.7098V68.8722C200.682 69.8449 200.265 70.7292 199.431 71.525C198.689 72.2324 197.762 72.5861 196.65 72.5861H189.28C188.168 72.5861 187.195 72.984 186.36 73.7798C185.619 74.5757 185.248 75.4599 185.248 76.4326V127.764C185.248 128.825 185.619 129.753 186.36 130.549C187.195 131.256 188.168 131.61 189.28 131.61H196.65C197.762 131.61 198.689 132.008 199.431 132.804C200.265 133.511 200.682 134.395 200.682 135.457V142.486C200.682 143.547 201.099 144.476 201.934 145.272Z" fill="#160E27"/>
</svg>
