<svg width="33" height="16" viewBox="0 0 33 16" fill="none" xmlns="http://www.w3.org/2000/svg">
<path fill-rule="evenodd" clip-rule="evenodd" d="M0.780273 8.00001C0.780273 4.03105 3.86699 0.813568 7.67466 0.813568H24.8456C28.6532 0.813568 31.74 4.03105 31.74 8.00001C31.74 11.969 28.6532 15.1864 24.8456 15.1864H7.67466C3.86699 15.1864 0.780273 11.969 0.780273 8.00001ZM7.67466 2.44069H24.8456C26.0756 2.44069 27.2083 2.87469 28.1105 3.6038C29.7683 4.94348 28.1636 7.05086 26.0321 7.05086C24.6953 7.05086 23.5621 6.1557 22.4796 5.3006C22.267 5.13271 22.0564 4.96637 21.8466 4.80864C21.2266 4.34247 20.4652 4.06781 19.6423 4.06781H12.878C10.7945 4.06781 9.10557 5.82831 9.10557 8.00001C9.10557 10.1717 10.7945 11.9322 12.878 11.9322H19.6423C20.4969 11.9322 21.2852 11.6359 21.9178 11.1366C22.1422 10.9594 22.3676 10.7714 22.5954 10.5814C23.7077 9.6537 24.8776 8.67797 26.2738 8.67797C28.3323 8.67797 29.9493 10.6507 28.4681 12.0802C27.5169 12.9982 26.2441 13.5593 24.8456 13.5593H7.67466C4.72911 13.5593 2.34127 11.0703 2.34127 8.00001C2.34127 4.92968 4.72911 2.44069 7.67466 2.44069ZM14.3968 11.0438C14.4532 11.0937 14.5159 11.1187 14.5849 11.1187H17.9354C18.0043 11.1187 18.067 11.0937 18.1234 11.0438C18.1799 10.9877 18.2081 10.9223 18.2081 10.8475V10.3519C18.2081 10.277 18.2332 10.2147 18.2833 10.1648C18.3398 10.1087 18.4025 10.0807 18.4714 10.0807H18.9793C19.0482 10.0807 19.1109 10.0557 19.1674 10.0059C19.2238 9.94975 19.252 9.88429 19.252 9.80948V6.19054C19.252 6.12197 19.2238 6.05962 19.1674 6.00352C19.1109 5.94741 19.0482 5.91935 18.9793 5.91935H18.4714C18.4025 5.91935 18.3398 5.89442 18.2833 5.84454C18.2332 5.78844 18.2081 5.7261 18.2081 5.65752V5.15255C18.2081 5.08398 18.1799 5.02163 18.1234 4.96553C18.067 4.90942 18.0043 4.88137 17.9354 4.88137H14.5849C14.5159 4.88137 14.4532 4.90942 14.3968 4.96553C14.3404 5.02163 14.3121 5.08398 14.3121 5.15255V5.65752C14.3121 5.7261 14.2839 5.78844 14.2275 5.84454C14.1773 5.89442 14.1146 5.91935 14.0394 5.91935H13.5409C13.4657 5.91935 13.3999 5.94741 13.3434 6.00352C13.2933 6.05962 13.2682 6.12197 13.2682 6.19054V9.80948C13.2682 9.88429 13.2933 9.94975 13.3434 10.0059C13.3999 10.0557 13.4657 10.0807 13.5409 10.0807H14.0394C14.1146 10.0807 14.1773 10.1087 14.2275 10.1648C14.2839 10.2147 14.3121 10.277 14.3121 10.3519V10.8475C14.3121 10.9223 14.3404 10.9877 14.3968 11.0438Z" fill="#160E28"/>
</svg>
