<svg width="1440" height="163" viewBox="0 0 1440 163" fill="none" xmlns="http://www.w3.org/2000/svg">
<g clip-path="url(#clip0_2987_5528)">
<path fill-rule="evenodd" clip-rule="evenodd" d="M1001.74 0.130859C934.434 0.130859 905.351 28.9334 905.351 81.1509C905.351 133.161 934.849 163 1001.53 163H1019.81C1087.33 163 1116.41 133.783 1116.41 81.5654C1116.41 29.555 1086.91 0.130859 1019.81 0.130859H1001.74ZM997.109 130.947C997.109 132.103 998.046 133.04 999.202 133.04H1035.95C1037.11 133.04 1038.05 132.103 1038.05 130.947V31.5267C1038.05 30.3707 1037.11 29.4336 1035.95 29.4336H1003.34C1002.5 29.4336 1001.74 29.945 1001.4 30.7169C996.392 41.929 988.563 48.3382 961.424 49.1385C960.284 49.1721 959.358 50.1017 959.358 51.2425V69.3356C959.358 70.4916 960.296 71.4287 961.452 71.4287H995.016C996.172 71.4287 997.109 72.3658 997.109 73.5217V130.947ZM1129.87 49.4015C1129.87 48.2455 1130.81 47.3084 1131.96 47.3084H1167.87C1169.03 47.3084 1169.96 48.2455 1169.96 49.4015V59.0778C1169.96 61.3027 1173.38 62.1983 1174.73 60.435C1183.35 49.2364 1197.11 43.5786 1217.54 43.5786H1224.6C1259.29 43.5786 1277.57 59.9484 1277.57 100.976V157.11C1277.57 158.266 1276.63 159.203 1275.48 159.203H1238.12C1236.96 159.203 1236.02 158.266 1236.02 157.11V101.184C1236.02 84.3995 1225.22 76.7326 1204.66 76.7326H1200.92C1178.69 76.7326 1171.42 85.85 1171.42 101.391V157.11C1171.42 158.266 1170.48 159.203 1169.33 159.203H1131.96C1130.81 159.203 1129.87 158.266 1129.87 157.11V49.4015ZM1354 162.933C1306.22 162.933 1286.9 145.734 1286.9 103.256C1286.9 60.9845 1306.22 43.5786 1354.21 43.5786H1373.52C1419.85 43.5786 1440 61.6061 1440 98.4899V111.109C1440 112.265 1439.06 113.202 1437.91 113.202H1328.91C1327.66 113.202 1326.69 114.29 1326.87 115.52C1329.22 131.127 1337.53 136.41 1357.94 136.41H1368.75C1386.58 136.41 1396.82 132.078 1398.95 123.752C1399.22 122.717 1400.09 121.905 1401.16 121.905H1437.17C1438.44 121.905 1439.43 123.037 1439.19 124.289C1434.35 150.241 1412.66 162.933 1373.94 162.933H1354ZM1398.23 90.4086C1399.39 90.4086 1400.33 89.4645 1400.25 88.3116C1399.3 75.3418 1389.28 70.1018 1368.75 70.1018H1358.57C1338.95 70.1018 1330.44 74.7236 1327.46 87.9835C1327.18 89.2438 1328.17 90.4086 1329.46 90.4086H1398.23ZM0 155.54C0 156.696 0.937092 157.633 2.09306 157.633H39.6618C40.8178 157.633 41.7549 156.696 41.7549 155.54V41.5017C41.7549 40.5228 42.5484 39.7292 43.5274 39.7292C44.2196 39.7292 44.8485 40.1322 45.1377 40.7611L98.3218 156.415C98.6633 157.157 99.406 157.633 100.223 157.633H134.516C135.334 157.633 136.078 157.156 136.419 156.412L189.329 40.9105C189.659 40.1907 190.378 39.7292 191.17 39.7292C192.288 39.7292 193.194 40.6356 193.194 41.7536V155.54C193.194 156.696 194.131 157.633 195.287 157.633H232.856C234.012 157.633 234.949 156.696 234.949 155.54V4.31678C234.949 3.16082 234.012 2.22373 232.856 2.22373H170.253C169.424 2.22373 168.673 2.71277 168.338 3.47086L119.999 112.871C119.664 113.629 118.913 114.118 118.085 114.118H117.682C116.86 114.118 116.114 113.638 115.775 112.889L66.2014 3.45312C65.8623 2.70459 65.1166 2.22373 64.2948 2.22373H2.09306C0.937093 2.22373 0 3.16083 0 4.31679V155.54ZM248.23 126.758C248.23 149.759 265.056 161.363 298.709 161.363H312.004C330.682 161.363 344.18 157.565 353.152 149.448C354.629 148.112 357.291 149.09 357.291 151.081V155.54C357.291 156.696 358.228 157.633 359.384 157.633H394.46C395.616 157.633 396.553 156.696 396.553 155.54V81.7933C396.553 53.8196 377.857 42.0085 333.817 42.0085H316.367C273.615 42.0085 256.356 52.8503 254.568 81.0707C254.493 82.2528 255.444 83.2438 256.629 83.2438H291.904C292.948 83.2438 293.824 82.469 294.017 81.4436C295.949 71.1339 301.327 68.5317 318.444 68.5317H331.324C350.228 68.5317 356.252 71.8471 356.252 82.6222V86.2377C356.252 87.3483 355.385 88.2655 354.276 88.3275L293.308 91.7395C263.394 93.3972 248.23 105.208 248.23 126.758ZM299.956 134.425C292.893 134.425 288.53 130.488 288.53 124.479C288.53 118.47 292.893 114.326 299.956 113.911L353.979 109.934C355.202 109.844 356.247 110.828 356.161 112.051C355.017 128.358 343.32 134.425 314.705 134.425H299.956ZM474.312 157.633C447.722 157.633 437.959 146.858 437.959 119.506V74.3546C437.959 73.1986 437.022 72.2616 435.866 72.2616H407.853C406.697 72.2616 405.76 71.3245 405.76 70.1685V47.8314C405.76 46.6755 406.697 45.7384 407.853 45.7384H435.866C437.022 45.7384 437.959 44.8013 437.959 43.6453V14.6774C437.959 13.5214 438.896 12.5844 440.052 12.5844H477.205C478.361 12.5844 479.298 13.5214 479.298 14.6774V43.6453C479.298 44.8013 480.235 45.7384 481.391 45.7384H518.752C519.908 45.7384 520.845 46.6755 520.845 47.8314V70.1685C520.845 71.3245 519.908 72.2616 518.752 72.2616H481.391C480.235 72.2616 479.298 73.1986 479.298 74.3546V114.533C479.298 122.821 481.791 125.308 490.308 125.308H519.168C520.324 125.308 521.261 126.245 521.261 127.401V155.54C521.261 156.696 520.324 157.633 519.168 157.633H474.312ZM533.991 155.54C533.991 156.696 534.928 157.633 536.084 157.633H573.445C574.601 157.633 575.538 156.696 575.538 155.54V101.893C575.538 85.3159 583.432 78.2707 601.921 78.2707H638.259C639.415 78.2707 640.352 77.3336 640.352 76.1777V45.7593C640.352 44.6033 639.415 43.6662 638.259 43.6662H612.723C596.76 43.6662 586.685 47.4591 579.953 57.0193C578.611 58.925 574.707 58.0605 574.707 55.7297V47.8314C574.707 46.6755 573.77 45.7384 572.614 45.7384H536.084C534.928 45.7384 533.991 46.6754 533.991 47.8314V155.54ZM653.447 157.633C652.291 157.633 651.354 156.696 651.354 155.54V47.8314C651.354 46.6754 652.291 45.7384 653.447 45.7384H690.808C691.964 45.7384 692.901 46.6755 692.901 47.8314V155.54C692.901 156.696 691.964 157.633 690.808 157.633H653.447ZM653.447 31.0263C652.291 31.0263 651.354 30.0892 651.354 28.9332V4.31678C651.354 3.16082 652.291 2.22373 653.447 2.22373H690.808C691.964 2.22373 692.901 3.16082 692.901 4.31678V28.9332C692.901 30.0892 691.964 31.0263 690.808 31.0263H653.447ZM705.406 154.058C704.085 155.376 705.018 157.633 706.884 157.633H752.613C753.208 157.633 753.775 157.38 754.172 156.937L783.581 124.129C784.407 123.207 785.849 123.2 786.684 124.114L816.701 156.952C817.097 157.386 817.658 157.633 818.245 157.633H865.48C867.34 157.633 868.276 155.387 866.966 154.066L814.826 101.49C814.021 100.679 814.016 99.3721 814.814 98.5544L862.88 49.2931C864.174 47.9674 863.234 45.7384 861.382 45.7384H815.788C815.18 45.7384 814.602 46.0028 814.204 46.463L789.165 75.4423C788.343 76.3943 786.872 76.4107 786.029 75.4771L759.78 46.4282C759.383 45.989 758.819 45.7384 758.227 45.7384H710.984C709.126 45.7384 708.189 47.9795 709.495 49.3019L758.11 98.5462C758.919 99.3658 758.914 100.685 758.098 101.499L705.406 154.058Z" fill="#1A1A1A"/>
</g>
<defs>
<clipPath id="clip0_2987_5528">
<rect width="1440" height="162.869" fill="white" transform="translate(0 0.130859)"/>
</clipPath>
</defs>
</svg>
